<?xml version="1.0" standalone="no"?><!DOCTYPE svg PUBLIC "-//W3C//DTD SVG 1.1//EN" "http://www.w3.org/Graphics/SVG/1.1/DTD/svg11.dtd"><svg t="1559449863605" class="icon" style="" viewBox="0 0 1024 1024" version="1.1" xmlns="http://www.w3.org/2000/svg" p-id="1977" xmlns:xlink="http://www.w3.org/1999/xlink" width="200" height="200"><defs><style type="text/css"></style></defs><path d="M0 0h1024v1024H0z" fill="#FFFFFF" fill-opacity="0" p-id="1978"></path><path d="M512 331.296m-150.592 0a150.592 150.592 0 1 0 301.184 0 150.592 150.592 0 1 0-301.184 0Z" fill="#258CFF" p-id="1979"></path><path d="M363.936 486.784A210.88 210.88 0 0 0 512 547.136a210.88 210.88 0 0 0 152.928-65.28c28.608 5.12 57.248 11.776 85.856 20.064a128 128 0 0 1 92.48 122.976v33.696a124.48 124.48 0 0 1-124.448 124.48H335.296a124.48 124.48 0 0 1-124.48-124.48v-33.696a128 128 0 0 1 92.512-122.976c20.192-5.856 40.416-10.88 60.608-15.136z" fill="#258CFF" p-id="1980"></path><path d="M512 928c229.76 0 416-186.24 416-416S741.76 96 512 96 96 282.24 96 512s186.24 416 416 416z m0 32C264.576 960 64 759.424 64 512S264.576 64 512 64s448 200.576 448 448-200.576 448-448 448z" fill="#258CFF" p-id="1981"></path></svg>