<?xml version="1.0" standalone="no"?><!DOCTYPE svg PUBLIC "-//W3C//DTD SVG 1.1//EN" "http://www.w3.org/Graphics/SVG/1.1/DTD/svg11.dtd"><svg t="1546752396265" class="icon" style="" viewBox="0 0 1024 1024" version="1.1" xmlns="http://www.w3.org/2000/svg" p-id="6251" xmlns:xlink="http://www.w3.org/1999/xlink" width="200" height="200"><defs><style type="text/css"></style></defs><path d="M746.450375 1023.988014H180.132074c-96.884167 0-175.707182-78.823015-175.707182-175.707182V281.964529c0-96.886165 78.823015-175.705184 175.707182-175.705184h566.318301c96.886165-0.001998 175.707182 78.819019 175.707181 175.705184V848.280832c0 96.884167-78.821017 175.707182-175.707181 175.707182zM180.132074 157.500198c-68.628782 0-124.462334 55.833552-124.462333 124.462334V848.280832c0 68.626784 55.833552 124.464331 124.462333 124.464331h566.318301c68.63078 0 124.462334-55.835549 124.462333-124.464331V281.964529c0-68.628782-55.831554-124.464331-124.462333-124.464331H180.132074z" p-id="6252"></path><path d="M975.857571 850.72601c-4.594696 0-9.245328-1.234575-13.440486-3.827582-12.040102-7.435417-15.767799-23.225191-8.332382-35.263296 12.09404-19.573406 18.484663-42.157338 18.484663-65.306617V180.012212c0-68.63078-55.835549-124.464331-124.464331-124.464331H281.786734c-23.666682 0-46.67812 6.660312-66.547184 19.261766-11.950206 7.581249-27.781931 4.035342-35.359185-7.914863-7.579251-11.950206-4.035342-27.781931 7.914864-35.359185 28.089576-17.813438 60.590061-27.232566 93.991505-27.232566h566.318301c96.882169 0 175.707182 78.821017 175.707182 175.709179v566.316303c0 32.670289-9.03557 64.565472-26.133834 92.239529-4.844408 7.842947-13.232726 12.155968-21.820812 12.157966z" p-id="6253"></path><path d="M738.70931 379.402057h-461.187652c-14.147669 0-25.618429-11.470759-25.618429-25.622424 0-14.149667 11.470759-25.620426 25.620426-25.620426h461.187653c14.149667 0 25.618429 11.470759 25.618429 25.620426 0 14.151665-11.466764 25.622424-25.620427 25.622424zM160.522709 327.13439h57.393751v57.391753h-57.393751zM738.70931 520.489201h-461.187652c-14.147669 0-25.618429-11.470759-25.618429-25.620426 0-14.151665 11.470759-25.622424 25.620426-25.622425h461.187653c14.149667 0 25.618429 11.470759 25.618429 25.622425 0 14.149667-11.466764 25.620426-25.620427 25.620426zM160.522709 468.223531h57.393751v57.391753h-57.393751zM738.70931 661.578342h-461.187652c-14.147669 0-25.618429-11.470759-25.618429-25.622424 0-14.149667 11.470759-25.620426 25.620426-25.620426h461.187653c14.149667 0 25.618429 11.470759 25.618429 25.620426 0 14.151665-11.466764 25.622424-25.620427 25.622424zM160.522709 609.310675h57.393751v57.391752h-57.393751zM738.70931 802.667483h-461.187652c-14.147669 0-25.620426-11.470759-25.620427-25.622424s11.472757-25.620426 25.620427-25.620426h461.187652c14.151665 0 25.622424 11.468762 25.622424 25.620426s-11.470759 25.622424-25.622424 25.622424zM160.522709 750.399816h57.393751v57.391753h-57.393751z" p-id="6254"></path></svg>